<?xml version="1.0" ?><svg width="32px" height="32px" viewBox="0 0 32 32" xmlns="http://www.w3.org/2000/svg"><title/><g data-name="Layer 6" id="Layer_6"><path d="M16,14.77,28.15,6.1A2.38,2.38,0,0,0,27.5,6H4.5a2.38,2.38,0,0,0-.65.1Z"/><path d="M17.45,18.83a1,1,0,1,1,1.1-1.66l11.18,7.45A2.5,2.5,0,0,0,30,23.5V8.5a2.5,2.5,0,0,0-.26-1.09l-13.16,9.4-.09.05-.09.05A1.11,1.11,0,0,1,16,17h0a1.11,1.11,0,0,1-.4-.09l-.09-.05-.09-.05L2.26,7.41A2.5,2.5,0,0,0,2,8.5v15a2.5,2.5,0,0,0,.27,1.12l11.18-7.45a1,1,0,1,1,1.1,1.66L3.92,25.92A2.2,2.2,0,0,0,4.5,26h23a2.2,2.2,0,0,0,.58-.08Z"/></g></svg>